<?xml version="1.0" encoding="UTF-8"?>
<!DOCTYPE svg PUBLIC "-//W3C//DTD SVG 1.1//EN" "http://www.w3.org/Graphics/SVG/1.1/DTD/svg11.dtd">
<!-- Creator: CorelDRAW 2020 (64-Bit) -->
<svg xmlns="http://www.w3.org/2000/svg" xml:space="preserve" width="297mm" height="210mm" version="1.1" style="shape-rendering:geometricPrecision; text-rendering:geometricPrecision; image-rendering:optimizeQuality; fill-rule:evenodd; clip-rule:evenodd"
viewBox="0 0 29700 21000"
 xmlns:xlink="http://www.w3.org/1999/xlink"
 xmlns:xodm="http://www.corel.com/coreldraw/odm/2003">
 <defs>
  <style type="text/css">
   <![CDATA[
    .fil0 {fill:#E31E24}
    .fil1 {fill:#22573C}
   ]]>
  </style>
 </defs>
 <g id="Слой_x0020_1">
  <metadata id="CorelCorpID_0Corel-Layer"/>
  <path class="fil0" d="M13069.04 9259.99l-1098.34 -3285.64 -1122.98 3285.64 2221.32 0zm-1349.65 -3805.35l578.39 0 1986.56 5708.11 -586.74 0 -486.32 -1458.49 -2514.46 0 -502.86 1458.49 -586.74 0 2112.17 -5708.11z"/>
  <path class="fil0" d="M16841.09 10710.14c611.7,0 1148.27,-276.59 1148.27,-1064.39 0,-729.37 -435.84,-1165.13 -1148.27,-1165.13l-829.86 -0.16 125.62 -452.61 704.24 0c628.55,0 963.98,-561.53 963.98,-1123.07 0,-670.61 -452.69,-1005.88 -1223.96,-1005.88l-1081.25 -0.15 0 4811.39 1341.23 0zm-1852.51 -5255.5l1525.51 0c1240.49,0 1860.94,502.94 1860.94,1450.14 0,678.96 -368.9,1114.8 -838.36,1290.82 511.28,176.02 1031,611.86 1031,1450.15 0,963.74 -704.01,1517.08 -1667.99,1517.08l-1911.1 -0.08 0 -5708.11z"/>
  <polygon class="fil0" points="20713.55,5957.5 19146.29,5957.5 19146.29,5513.23 22918.1,5513.23 22792.4,5957.5 21225.15,5957.5 21225.15,11162.75 20713.55,11162.75 "/>
  <path class="fil0" d="M25416.26 10827.49c1232.06,0 1793.84,-1223.72 1793.84,-2631.89 0,-1399.9 -628.8,-2405.62 -1793.92,-2405.62 -1139.84,-0.08 -1793.84,1064.48 -1793.84,2405.62 0,1408.17 578.63,2631.97 1793.92,2631.89zm0 452.69c-1533.94,0 -2363.88,-1349.49 -2363.88,-3084.58 0.08,-1651.21 1014.23,-2849.88 2363.8,-2849.88 1408.32,-0.08 2371.99,1198.67 2371.99,2849.88 0,1735.01 -896.64,3084.58 -2371.91,3084.58z"/>
  <polygon class="fil1" points="5025.36,13171.73 3335.43,13171.73 3333.6,14061.53 3107.02,14063.28 3108.84,12946.89 5248.28,12946.89 5248.28,14061.53 5025.36,14061.53 "/>
  <path class="fil1" d="M10079.87 13257.59l0 137.06c0,58.36 -27.43,87.7 -82.2,87.7l-1607.72 0 1.74 -310.62 1602.32 0c58.43,0 87.69,27.42 85.86,85.94l0 -0.08zm-43.8 451.34c180.87,0 270.39,-93.18 270.39,-275.88l0 -219.35c0,-177.13 -91.35,-264.82 -274.05,-264.82l-1867.22 -0.08 0 1114.48 226.5 0 0 -356.26 1644.38 1.91z"/>
  <path class="fil1" d="M15056 13840.35l-1514.62 0c-60.27,0 -89.53,-30.93 -89.53,-91.19l0 -489.74c0,-58.52 29.26,-87.61 89.53,-87.61l1512.79 -0.08c60.26,0 89.52,31.08 89.52,93.25l0 487.68c0,58.51 -29.26,87.77 -87.69,87.77l0 -0.08zm49.29 221.18c175.38,0 263.08,-87.69 263.08,-261.25l0 -577.43c0,-182.7 -91.35,-273.97 -272.22,-273.97l-1604.07 -0.08c-177.21,0 -264.98,89.6 -264.98,268.64l0.08 577.28c0,179.12 89.52,268.64 266.73,268.64l1611.38 -1.83z"/>
  <path class="fil1" d="M19779.78 13169.82l0 314.28 -1178.4 0c-60.27,0 -91.35,-30.93 -91.35,-91.27l0 -136.99c0,-56.69 31.08,-85.86 93.18,-85.86l1176.57 -0.16zm1448.87 537.2c180.87,0 270.39,-91.27 270.39,-275.79l0 -219.27c0,-177.3 -91.35,-264.91 -274.05,-264.91l-2672.91 -0.16c-177.29,0 -264.98,89.68 -264.98,266.89l0 226.51c0,177.13 91.35,266.81 272.22,266.81l1220.46 -0.08 0 356.26 224.75 0 0 -356.26 1224.12 0zm41.98 -451.18l0 136.91c0,60.26 -29.26,91.43 -87.69,91.43l-1178.41 -0.08 0 -314.28 1180.23 0c58.44,0 85.87,29.33 85.87,86.02l0 0z"/>
  <polygon class="fil1" points="26336.04,13202.81 26336.04,14063.28 26560.71,14063.28 26560.71,12946.89 26336.04,12946.89 24644.2,13794.72 24644.2,12948.8 24419.44,12948.8 24419.44,14063.28 24640.54,14061.53 "/>
  <polygon class="fil1" points="-27391.27,-25014.41 -27833.34,-25014.64 -27833.87,-24781.09 -27892.87,-24780.92 -27892.14,-25073.29 -27333,-25073.29 -27333,-24781.09 -27391.27,-24781.09 "/>
  <path class="fil1" d="M-26092.29 -25014.64l-419.29 0 -0.2 81.6 420.19 0c14.15,0 21.35,-7.72 21.67,-23.13l0 -35.78c0.12,-15.15 -7.31,-22.63 -22.37,-22.69zm-419.29 140.48l0 93.24 -59 0 0 -292.14 488.29 0c47.75,0 71.57,23.16 71.57,69.44l0 57.45c0,48.16 -23.62,72.25 -70.87,72.25l-429.99 -0.24z"/>
  <path class="fil1" d="M-24746.5 -24862.46l0 -127.45c0,-16.37 -7.74,-24.47 -23.3,-24.47l-395.67 -0.03c-15.55,0 -23.3,7.69 -23.3,22.9l0 128.38c0,15.87 7.72,23.8 23.3,23.8l396.17 -0.03c15.17,0 22.8,-7.66 22.8,-23.1zm-431.33 81.54c-46.64,0 -69.94,-23.42 -69.94,-70.34l0 -151.48c0,-46.75 23.1,-70.08 69.21,-70.08l419.49 0c47.43,0 71.17,23.94 71.17,71.77l0 151.19c0,45.49 -23.01,68.24 -68.8,68.24l-421.13 0.7z"/>
  <path class="fil1" d="M-23167.39 -25014.64l-309.01 0 0 82.04 308.51 0c15.06,0 22.69,-7.89 22.78,-23.71l0 -35.7c0.23,-15.09 -7.22,-22.57 -22.28,-22.63zm-675.56 0c-16.31,0 -24.35,7.54 -24.26,22.66l0.03 35.61c0.2,15.85 8.12,23.83 23.8,23.83l308.51 -0.06 0 -82.04 -308.08 0zm366.55 140.48l0 93.24 -58.47 0 0 -93.24 -319.45 0c-47.33,0 -70.96,-23.3 -70.96,-69.93l0 -59c0,-46.64 23.22,-69.91 69.53,-69.91l698.57 -0.06c47.68,0 71.6,23.16 71.6,69.35l0 57.37c0,48.09 -23.63,72.21 -70.87,72.21l-319.95 -0.03z"/>
  <polygon class="fil1" points="-22263.84,-24781.62 -22322.31,-24780.92 -22322.31,-25072.82 -22263.11,-25072.82 -22263.11,-24851.32 -21821.77,-25073.52 -21762.77,-25073.52 -21762.77,-24780.92 -21821.77,-24780.92 -21821.77,-25006.34 "/>
  <path class="fil1" d="M3940.85 7032.15c189.46,28.38 381.46,39.75 572.42,57.96 165.93,15.74 331.85,31.08 522.5,48.97 -104.78,-81.17 -218.87,-122.12 -336.22,-148.12 -448.48,-8.5 -801.55,-88.88 -801.55,-187.94 0,-104.87 392.9,-189.62 877.64,-189.62 484.65,-0.08 877.56,84.91 877.56,189.62 0,31.64 -39.28,60.98 -102.64,87.21 53.74,32.6 100.17,68.38 134.28,107.41 -45.88,61.06 -93.18,124.11 -144.14,191.84 319.6,243.92 675.78,244 1045.23,214.98 921.13,-72.51 1842.18,-154 2764.66,-193.43 425.18,-18.29 850.68,-28.62 1276.11,-37.05l23.29 -63.44c-1498.88,15.66 -3004.99,98.98 -4535.28,211.32 161.79,-239.39 294.25,-444.35 436.56,-642.23 97.63,-135.71 211.4,-259.5 313.8,-391.79 261.64,-338.13 641.43,-440.61 1032.11,-493.32 523.06,-70.52 1048.97,-133.17 1575.68,-159.09 588.41,-29.02 1176.57,-48.97 1740.57,-66.54l35.62 -97.48c-723.32,-14.55 -1482.02,2.39 -2240.97,46.12 -544.91,31.32 -1089.59,72.03 -1633.39,119.33 -403.64,35.06 -698.2,268.88 -956.43,560.82 -128.8,145.65 -272.78,278.66 -394.66,429.56 -65.03,80.53 -130.14,87.61 -207.02,51.99 -593.58,-274.84 -1206.47,-161.39 -1817.14,-94.21 -28.46,3.02 -56.13,14.79 -83.87,23.61 -112.1,35.62 -232.63,68.22 -220.86,221.58 11.21,146.92 131.49,184.76 246.14,201.94z"/>
  <path class="fil1" d="M5693.74 8893.48c996.58,101.61 1990.53,134.13 2992.36,111.23 425.82,-9.78 851.24,-13.44 1276.98,-15.11l26.71 -72.74c-286.92,-3.98 -573.85,-7.95 -861.1,-11.77 -511.52,-6.92 -1024.56,9.86 -1534.18,-25.04 -473.12,-32.36 -942.43,-119.42 -1413.49,-181.91 -373.51,-49.53 -746.38,-105.34 -1121,-145.09 -373.67,-39.59 -575.37,205.44 -723.64,493.56 -88.89,172.68 -146.21,364.68 -195.42,553.82 -80.3,308.55 54.7,466.13 367.78,461.68 773.17,-11.14 1546.43,-19.32 2319.76,-27.59 228.41,-2.47 441.8,-168.63 517.8,-408.25 -10.33,-0.32 -27.19,-4.38 -30.29,0.39 -200.51,302.36 -497.13,322.15 -823.89,310.31 -516.86,-18.85 -1035.14,-17.57 -1552.47,-5.89 -314.91,7.08 -387.18,-87.05 -275.96,-417.47 169.43,-503.42 308.32,-693.67 1030.05,-620.13z"/>
  <path class="fil1" d="M4348.78 10451.75c-242.88,2.78 -413.66,179.68 -380.82,415.09 31.8,227.62 81.89,458.02 163.54,672.04 80.38,210.45 282.71,294.8 496.5,327.08 160.44,24.09 322.94,43.57 484.81,46.67 358.64,6.76 717.52,2.15 1079.1,-21.63 -169.5,-25.36 -338.84,-51.59 -508.58,-75.52 -269.76,-38.25 -543.41,-58.36 -808.63,-116.95 -230.56,-50.97 -413.5,-181.35 -455.4,-444.03 -10.81,-67.9 -41.58,-132.37 -58.35,-199.63 -73.7,-295.84 53.74,-476.23 361.58,-486.09 412.46,-13.28 825.48,-11.29 1238.34,-15.42 92.63,-0.96 185.33,-0.16 277.95,-0.16 0.4,-10.1 0.71,-20.12 1.11,-30.13 -293.21,-20.99 -586.1,-49.77 -879.63,-60.58 -336.85,-12.49 -674.42,-14.55 -1011.52,-10.74z"/>
  <path class="fil1" d="M27799.69 11983.15c-61.45,-3.82 -123.15,-10.5 -184.6,-10.65 -2012.87,-5.73 -5484.87,-10.02 -7497.82,-16.06 -4095.39,-12.25 -8191.17,-25.13 -12286.55,-38.48 -81.33,-0.32 -165.53,4.05 -242.89,-15.19 -398.87,-98.82 -546.5,-395.77 -306,-733.02 419.85,-588.65 901.72,-1102.79 1721.8,-1103.11 201.07,-0.16 389.01,-0.56 566.54,-1.27l44.92 -123.39c-207.9,-2.87 -489.74,-4.77 -910.15,-5.57 -454.13,-0.72 -848.46,158.69 -1151.93,511.29 -206.39,240.02 -448.16,457.86 -614.4,723 -323.58,515.98 82.13,924.71 546.27,947.05 806.64,38.64 1615.75,34.74 2423.82,33.87 1593.97,-1.75 3188.09,-16.7 4782.06,-20.2 3298.6,-7.23 6597.52,-9.94 9896.12,-15.74 523.37,-0.95 2505.95,-6.04 3029.32,-14.47 65.35,-1.19 130.15,-34.82 195.26,-53.42 -3.97,-21.55 -7.87,-43.1 -11.77,-64.64z"/>
  <path class="fil1" d="M4212.04 7932.37c13.91,-9.47 26.39,-11.77 39.83,-18.53 139.6,-121.08 417.55,-195.34 741.45,-204.64 798.13,-22.98 1382.96,570.28 1337.96,741.37 -10.57,39.83 -37.29,73.38 -74.33,101.29 464.06,77.51 934.24,150.02 1396.24,240.81 10.09,-28.7 -528.15,-451.34 -819.92,-617.1 -389.09,-220.94 -784.46,-438.86 -1197.72,-607.65 -732.47,-299.25 -1435.36,-103.43 -1837.09,390.52 -248.53,305.53 -373.91,672.2 -469.55,1048.18 -190.17,747.65 -232.63,1512.87 -258.86,2279.28 -7.16,208.3 -1.12,417.24 -1.12,655.19 -1867.37,21.07 -330.65,33.31 -2187.69,54.3 0.08,14.07 0.15,28.31 0.31,42.46 1931.38,28.62 469.07,66.14 2421.44,95.16 3.74,-69.56 7.63,-124.82 9.46,-180.15 22.74,-668.15 15.35,-1338.84 76.41,-2003.49 55.33,-603.27 173.31,-1204.96 516.69,-1726.74 75.61,-114.96 191.13,-211.72 306.49,-290.26z"/>
  <path class="fil0" d="M-26733.02 -25831.79l-370.79 -1109.5 -379.27 1109.5 750.06 0zm-455.7 -1284.98l195.25 0 670.85 1927.47 -198.14 0 -164.2 -492.48 -849.08 0 -169.75 492.48 -198.14 0 713.21 -1927.47z"/>
  <path class="fil0" d="M-25459.3 -25342.13c206.59,0 387.69,-93.38 387.69,-359.44 0.03,-246.27 -147.07,-393.42 -387.69,-393.42l-280.24 -0.06 42.48 -152.79 237.76 0c212.26,0 325.5,-189.63 325.5,-379.24 0,-226.47 -152.85,-339.65 -413.3,-339.65l-365.12 -0.03 0 1624.63 452.92 0zm-625.56 -1774.64l515.19 0c418.85,0 628.34,169.84 628.34,489.69 0,229.19 -124.61,376.4 -283.02,435.87 172.56,59.38 348.1,206.59 348.1,489.64 0,325.44 -237.76,512.3 -563.26,512.3l-645.35 -0.03 0 -1927.47z"/>
  <polygon class="fil0" points="-24151.66,-26946.96 -24680.89,-26946.96 -24680.89,-27096.95 -23407.28,-27096.95 -23449.67,-26946.96 -23979.02,-26946.96 -23979.02,-25189.3 -24151.66,-25189.3 "/>
  <path class="fil0" d="M-22563.78 -25302.51c416.07,0 605.73,-413.21 605.73,-888.7 0.03,-472.68 -212.26,-812.33 -605.73,-812.33 -384.94,0 -605.66,359.48 -605.66,812.33 0,475.43 195.34,888.73 605.66,888.7zm0 152.82c-517.88,0 -798.12,-455.63 -798.12,-1041.52 0,-557.61 342.42,-962.34 798.12,-962.34 475.48,0 801.01,404.76 801.01,962.34 0,585.86 -302.84,1041.55 -801.01,1041.52z"/>
  <path class="fil1" d="M-29664.79 -24148.49l-572.29 0c-17.69,0 -26.26,-9.64 -26.26,-28.5l0 -153.67c0,-17.69 9.12,-26.81 27.4,-26.81l571.15 -0.03 0 -69.7 -586.56 0c-54.82,0 -82.25,27.48 -82.25,82.85l0 181.01c0,56.58 27.43,84.59 82.25,84.59l586.56 -0.06 0 -69.68z"/>
  <polygon class="fil1" points="-28083,-24148.49 -28682.13,-24148.49 -28682.13,-24218.16 -28083,-24218.16 -28083,-24287.83 -28682.13,-24287.83 -28682.13,-24358.03 -28083,-24358.03 -28083,-24427.73 -28752.38,-24427.73 -28752.38,-24078.81 -28083,-24078.81 "/>
  <path class="fil1" d="M-26573.15 -24330.66l0 42.83c0,18.27 -8.57,27.45 -25.7,27.45l-502.59 -0.03 0.55 -97.09 500.9 0c18.27,0 27.42,8.59 26.84,26.87l0 -0.03zm-13.72 141.1c56.55,0 84.53,-29.12 84.53,-86.22l0 -68.57c0,-55.4 -28.54,-82.8 -85.67,-82.8l-583.69 -0.05 0 348.39 70.81 0 0 -111.34 514.02 0.59z"/>
  <path class="fil1" d="M-25519.15 -24357.5l500.31 0c20,0 29.7,9.18 29.15,27.45l0 13.1c-0.59,19.41 -9.71,29.15 -28.01,29.15l-501.45 -0.03 0 -69.67zm-1.14 209.6l0 -70.26 504.31 0c17.72,0 26.84,9.77 26.29,28.63l0 13.68c-0.59,18.86 -9.71,28.01 -28.01,28.01l-502.59 -0.06zm600.83 -14.85l0 -43.39c0,-26.87 -14.27,-42.25 -43.39,-46.81 29.12,-4.59 43.39,-21.69 43.39,-50.26l0 -40.55c0,-55.41 -27.98,-83.39 -83.39,-83.39l-586.56 -0.05 0 348.39 584.87 -0.5c56.54,0 84.52,-28.01 85.08,-83.38l0 -0.06z"/>
  <polygon class="fil1" points="-23409.3,-24347.77 -23409.3,-24078.81 -23339.04,-24078.81 -23339.04,-24427.73 -23409.3,-24427.73 -23938.17,-24162.75 -23938.17,-24427.2 -24008.4,-24427.2 -24008.4,-24078.81 -23939.31,-24079.31 "/>
  <path class="fil1" d="M-21756.92 -24148.49l-572.29 0c-17.72,0 -26.29,-9.64 -26.29,-28.5l0.03 -153.67c0,-17.69 9.12,-26.81 27.4,-26.81l571.15 -0.03 0 -69.7 -586.59 0c-54.82,0 -82.25,27.48 -82.25,82.85l0.03 181.01c0,56.58 27.4,84.59 82.22,84.59l586.59 -0.06 0 -69.68z"/>
  <path class="fil1" d="M-29760.57 -19503.29l-469.09 0c-14.5,0 -21.55,-8.63 -21.55,-25.41l0.03 -136.86c0,-15.79 7.49,-23.89 22.46,-23.89l468.15 -0.03 0 -62.07 -480.78 0c-44.94,0 -67.42,24.45 -67.42,73.8l0 161.24c0,50.35 22.48,75.29 67.42,75.29l480.78 -0.06 0 -62.01z"/>
  <polygon class="fil1" points="-29172.82,-19690 -28887.72,-19690 -28887.72,-19752.01 -29527.67,-19752.01 -29527.67,-19688.95 -29241.14,-19688.95 -29241.14,-19441.28 -29172.82,-19441.28 "/>
  <path class="fil1" d="M-28164.54 -19665.56l0 38.18c0,16.23 -7.02,24.42 -21.08,24.42l-411.95 -0.06 0.49 -86.46 410.52 0c15,0 22.49,7.66 22.02,23.95l0 -0.03zm-11.23 125.6c46.34,0 69.27,-25.87 69.27,-76.74l0.03 -61.05c0,-49.38 -23.42,-73.74 -70.23,-73.74l-478.44 -0.06 0 310.27 58.06 0 0 -99.14 421.31 0.46z"/>
  <path class="fil1" d="M-27323.97 -19674.21c0,-51.87 -22.95,-77.8 -68.82,-77.8l-410.55 0c-45.88,0 -68.83,25.93 -68.83,77.33l0 233.4 57.13 0 0 -100.2 433.48 0 0 100.2 57.59 0 0 -232.93zm-491.07 9.64c0,-16.78 7.49,-25.4 22.93,-25.4l387.62 -0.03c15.44,0 22.93,8.18 22.93,24.47l0 62.04 -433.48 0 0 -61.08z"/>
  <polygon class="fil1" points="-27091.5,-19752.01 -27021.77,-19752.54 -26950.14,-19627.9 -26598.09,-19627.9 -26520.38,-19751.55 -26451.58,-19752.01 -26538.65,-19597.38 -26451.58,-19441.28 -26521.78,-19441.28 -26598.09,-19565.36 -26949.67,-19565.36 -27022.71,-19441.28 -27091.5,-19441.28 -27004.9,-19596.41 "/>
  <path class="fil1" d="M-25749.86 -19503.29l-388.1 0c-15.46,0 -22.95,-8.63 -22.95,-25.41l0 -136.33c0,-16.32 7.49,-24.42 22.95,-24.42l387.6 -0.03c15.47,0 22.95,8.69 22.95,25.97l0 135.8c0,16.23 -7.48,24.42 -22.48,24.42l0.03 0zm12.63 61.57c44.94,0 67.39,-24.44 67.39,-72.74l0 -160.78c0,-50.84 -23.39,-76.25 -69.73,-76.25l-411.02 -0.06c-45.43,0 -67.89,24.97 -67.89,74.82l0 160.75c0,49.82 22.93,74.76 68.36,74.76l412.89 -0.5z"/>
  <path class="fil1" d="M-25379.31 -19689.48l410.09 0c16.37,0 24.32,8.16 23.85,24.45l0 11.66c-0.46,17.28 -7.95,25.99 -22.92,25.99l-411.02 0 0 -62.1zm-0.93 186.65l0 -62.53 413.35 0c14.51,0 21.99,8.68 21.52,25.46l0 12.19c-0.46,16.76 -7.95,24.94 -22.92,24.94l-411.95 -0.06zm492.47 -13.15l0 -38.71c0,-23.92 -11.72,-37.6 -35.58,-41.67 23.86,-4.12 35.58,-19.32 35.58,-44.76l0 -36.16c0,-49.33 -22.95,-74.21 -68.36,-74.21l-480.77 -0.06 0 310.27 479.37 -0.44c46.34,0 69.29,-24.94 69.76,-74.26l0 0z"/>
  <path class="fil1" d="M-24106.9 -19674.21c0,-51.87 -22.95,-77.8 -68.82,-77.8l-410.55 0c-45.88,0 -68.83,25.93 -68.83,77.33l0 233.4 57.13 0 0 -100.2 433.5 0 0 100.2 57.57 0 0 -232.93zm-491.07 9.64c0,-16.78 7.49,-25.4 22.92,-25.4l387.63 -0.03c15.44,0 22.92,8.18 22.92,24.47l0.03 62.04 -433.5 0 0 -61.08z"/>
  <polygon class="fil1" points="-23325.8,-19751.55 -23382.9,-19751.55 -23382.9,-19627.38 -23817.33,-19627.38 -23817.33,-19751.55 -23873.97,-19751.55 -23873.97,-19441.28 -23817.33,-19441.28 -23817.33,-19565.36 -23382.9,-19565.36 -23382.9,-19441.28 -23325.8,-19441.28 "/>
  <polygon class="fil1" points="-22602.49,-19680.82 -22602.49,-19441.28 -22544.9,-19441.28 -22544.9,-19752.01 -22602.49,-19752.01 -23035.97,-19515.98 -23035.97,-19751.55 -23093.56,-19751.55 -23093.56,-19441.28 -23036.9,-19441.72 "/>
  <polygon class="fil1" points="-21763.12,-19503.29 -22254.19,-19503.29 -22254.19,-19565.36 -21763.12,-19565.36 -21763.12,-19627.38 -22254.19,-19627.38 -22254.19,-19690 -21763.12,-19690 -21763.12,-19752.01 -22311.76,-19752.01 -22311.76,-19441.28 -21763.12,-19441.28 "/>
  <path class="fil1" d="M-29341.11 -25848.87c366.49,37.43 732.02,49.35 1100.44,40.93 156.59,-3.62 313.16,-4.97 469.61,-5.58l9.82 -26.75c-105.52,-1.46 -211.04,-2.9 -316.67,-4.33 -188.11,-2.51 -376.78,3.65 -564.19,-9.18 -173.99,-11.9 -346.58,-43.94 -519.81,-66.9 -137.36,-18.24 -274.48,-38.76 -412.25,-53.35 -137.41,-14.59 -211.56,75.52 -266.12,181.5 -32.68,63.48 -53.76,134.11 -71.86,203.64 -29.53,113.5 20.11,171.45 135.25,169.78 284.33,-4.06 568.7,-7.1 853.09,-10.14 84,-0.91 162.47,-61.99 190.42,-150.11 -3.8,-0.06 -10,-1.64 -11.14,0.15 -73.74,111.19 -182.82,118.47 -302.99,114.08 -190.07,-6.9 -380.67,-6.46 -570.91,-2.13 -115.81,2.6 -142.39,-32.02 -101.49,-153.56 62.31,-185.1 113.39,-255.09 378.8,-228.05z"/>
  <path class="fil1" d="M-29985.73 -26533.37c69.64,10.47 140.28,14.65 210.51,21.34 61.02,5.76 122.03,11.43 192.15,17.98 -38.54,-29.85 -80.5,-44.88 -123.65,-54.44 -164.93,-3.16 -294.77,-32.68 -294.77,-69.11 0,-38.51 144.49,-69.76 322.75,-69.76 178.23,-0.03 322.72,31.25 322.72,69.76 0,11.6 -14.44,22.42 -37.74,32.07 19.76,12.02 36.84,25.14 49.38,39.5 -16.87,22.42 -34.27,45.64 -53.01,70.55 117.54,89.67 248.52,89.73 384.38,79.03 338.75,-26.67 677.46,-56.61 1016.7,-71.11 156.36,-6.72 312.84,-10.55 469.29,-13.65l8.57 -23.3c-551.21,5.73 -1105.09,36.4 -1667.85,77.71 59.5,-88.01 108.21,-163.41 160.55,-236.21 35.9,-49.91 77.74,-95.4 115.4,-144.08 96.22,-124.26 235.88,-162.03 379.55,-181.39 192.36,-25.96 385.76,-49 579.46,-58.5 216.38,-10.68 432.68,-18.04 640.09,-24.5l13.1 -35.85c-266,-5.32 -545.01,0.91 -824.11,16.99 -200.39,11.49 -400.7,26.46 -600.68,43.88 -148.44,12.93 -256.76,98.88 -351.73,206.24 -47.36,53.57 -100.31,102.45 -145.1,157.97 -23.95,29.62 -47.89,32.19 -76.17,19.12 -218.28,-101.01 -443.67,-59.38 -668.24,-34.64 -10.47,1.08 -20.64,5.43 -30.82,8.65 -41.25,13.1 -85.58,25.12 -81.25,81.51 4.12,54.01 48.36,67.95 90.52,74.24z"/>
  <path class="fil1" d="M-24036.88 -24722.44c-1506.07,-4.53 -3012.29,-9.27 -4518.36,-14.15 -29.91,-0.12 -60.87,1.49 -89.32,-5.59 -146.68,-36.37 -200.97,-145.54 -112.53,-269.57 154.4,-216.5 331.61,-405.55 633.19,-405.66 73.94,-0.03 143.06,-0.21 208.35,-0.47l16.51 -45.41c-76.45,-1.02 -180.1,-1.72 -334.7,-2.01 -167.01,-0.3 -312.02,58.35 -423.62,187.99 -75.9,88.27 -164.81,168.38 -225.95,265.89 -119,189.8 30.2,340.08 200.98,348.3 296.55,14.18 594.1,12.78 891.27,12.45 586.18,-0.58 1172.41,-6.14 1758.59,-7.42 1213.06,-2.69 2426.23,-3.69 3639.28,-5.79 106.96,-0.21 379.56,-0.85 633.69,-1.93l0.03 -51.93c-732.42,-1.57 -1679.68,-2.92 -2277.41,-4.7z"/>
  <path class="fil1" d="M-29835.71 -25275.76c-89.32,1 -152.13,66.05 -140.05,152.62 11.69,83.68 30.11,168.44 60.14,247.11 29.56,77.39 103.97,108.44 182.59,120.29 59,8.85 118.76,16.05 178.29,17.19 131.89,2.45 263.86,0.79 396.83,-7.96 -62.36,-9.29 -124.61,-18.97 -187.03,-27.77 -99.2,-14.06 -199.83,-21.46 -297.4,-43.01 -84.76,-18.77 -152.03,-66.69 -167.44,-163.29 -3.98,-25 -15.32,-48.68 -21.46,-73.41 -27.1,-108.83 19.76,-175.14 132.94,-178.79 151.71,-4.85 303.6,-4.12 455.4,-5.64 34.09,-0.38 68.18,-0.06 102.24,-0.06 0.15,-3.74 0.27,-7.4 0.41,-11.11 -107.82,-7.72 -215.53,-18.27 -323.48,-22.25 -123.88,-4.62 -248.02,-5.35 -371.98,-3.92z"/>
  <path class="fil1" d="M-29886 -26202.32c5.11,-3.48 9.7,-4.3 14.65,-6.78 51.34,-44.56 153.55,-71.84 272.66,-75.26 293.52,-8.45 508.59,209.69 492.04,272.61 -3.89,14.71 -13.72,27.02 -27.34,37.25 170.66,28.51 343.57,55.2 513.47,88.59 3.71,-10.59 -194.23,-165.98 -301.56,-226.94 -143.06,-81.28 -288.45,-161.39 -440.43,-223.49 -269.36,-110.05 -527.85,-38.01 -675.58,143.64 -91.4,112.33 -137.51,247.2 -172.68,385.44 -69.94,274.94 -85.55,556.35 -95.2,838.23 -0.46,12.83 -0.2,26.08 -0.41,38.97l0 271.15c26.73,0.47 54.79,0.94 86.08,1.4 1.37,-25.61 2.78,-45.9 3.48,-66.25 8.36,-245.74 5.64,-492.38 28.09,-736.78 20.35,-221.88 63.74,-443.12 190.02,-635 27.8,-42.31 70.28,-77.86 112.71,-106.78z"/>
  <polygon class="fil1" points="-27391.27,-20349.48 -27833.34,-20349.65 -27833.87,-20116.14 -27892.87,-20115.96 -27892.14,-20408.36 -27333,-20408.36 -27333,-20116.14 -27391.27,-20116.14 "/>
  <path class="fil1" d="M-26092.29 -20349.65l-419.29 0 -0.2 81.57 420.19 0c14.15,0 21.35,-7.72 21.67,-23.07l0 -35.82c0.12,-15.2 -7.31,-22.68 -22.37,-22.68zm-419.29 140.45l0 93.24 -59 0 0 -292.11 488.29 0c47.75,0 71.57,23.16 71.57,69.47l0 57.42c0,48.15 -23.62,72.22 -70.87,72.22l-429.99 -0.24z"/>
  <path class="fil1" d="M-24746.5 -20197.42l0 -127.59c0,-16.28 -7.74,-24.41 -23.3,-24.41l-395.67 -0.06c-15.55,0 -23.3,7.69 -23.3,22.95l0 128.35c0,15.91 7.72,23.77 23.3,23.77l396.17 -0.03c15.17,0 22.8,-7.6 22.8,-22.98zm-431.33 81.46c-46.64,0 -69.94,-23.39 -69.94,-70.32l0 -151.53c0,-46.7 23.1,-70 69.21,-70l419.49 -0.03c47.43,0 71.17,23.95 71.17,71.81l0 151.1c0,45.58 -23.01,68.3 -68.8,68.3l-421.13 0.67z"/>
  <path class="fil1" d="M-23167.39 -20349.65l-309.01 0 0 82.09 308.51 0c15.06,0 22.69,-8.04 22.78,-23.8l0 -35.72c0.23,-15.09 -7.22,-22.57 -22.28,-22.57zm-675.56 0c-16.31,0 -24.35,7.54 -24.26,22.6l0.03 35.64c0.2,15.78 8.12,23.88 23.8,23.88l308.51 -0.03 0 -82.09 -308.08 0zm366.55 140.45l0 93.24 -58.47 0 0 -93.24 -319.45 0c-47.33,0 -70.96,-23.27 -70.96,-69.9l0 -59.01c0,-46.63 23.22,-69.9 69.53,-69.9l698.57 -0.06c47.68,0 71.6,23.16 71.6,69.35l0 57.36c0,48.16 -23.63,72.19 -70.87,72.19l-319.95 -0.03z"/>
  <polygon class="fil1" points="-22263.84,-20116.66 -22322.31,-20115.96 -22322.31,-20407.84 -22263.11,-20407.84 -22263.11,-20186.28 -21821.77,-20408.54 -21762.77,-20408.54 -21762.77,-20115.96 -21821.77,-20115.96 -21821.77,-20341.29 "/>
  <path class="fil0" d="M-26733.02 -21166.9l-370.79 -1109.4 -379.27 1109.4 750.06 0zm-455.7 -1284.92l195.25 0 670.85 1927.53 -198.14 0 -164.2 -492.5 -849.08 0 -169.75 492.5 -198.14 0 713.21 -1927.53z"/>
  <path class="fil0" d="M-25459.3 -20677.17c206.59,0 387.69,-93.41 387.69,-359.41 0.03,-246.36 -147.07,-393.48 -387.69,-393.48l-280.24 -0.06 42.48 -152.71 237.76 0c212.26,0 325.5,-189.66 325.5,-379.29 0,-226.47 -152.85,-339.65 -413.3,-339.65l-365.12 0 0 1624.6 452.92 0zm-625.56 -1774.65l515.19 0c418.85,0 628.34,169.87 628.34,489.7 0,229.22 -124.61,376.43 -283.02,435.84 172.56,59.5 348.1,206.68 348.1,489.7 0,325.41 -237.76,512.32 -563.26,512.32l-645.35 -0.03 0 -1927.53z"/>
  <polygon class="fil0" points="-24151.66,-22281.98 -24680.89,-22281.98 -24680.89,-22431.96 -23407.28,-22431.96 -23449.67,-22281.98 -23979.02,-22281.98 -23979.02,-20524.29 -24151.66,-20524.29 "/>
  <path class="fil0" d="M-22563.78 -20637.52c416.07,0 605.73,-413.27 605.73,-888.76 0.03,-472.65 -212.26,-812.27 -605.73,-812.27 -384.94,-0.06 -605.66,359.44 -605.66,812.27 0,475.43 195.34,888.76 605.66,888.76zm0 152.85c-517.88,0 -798.12,-455.67 -798.12,-1041.61 0,-557.58 342.42,-962.29 798.12,-962.29 475.48,-0.03 801.01,404.73 801.01,962.29 0,585.89 -302.84,1041.61 -801.01,1041.61z"/>
  <path class="fil1" d="M-29341.11 -21183.88c366.49,37.42 732.02,49.32 1100.44,40.87 156.59,-3.51 313.16,-4.97 469.61,-5.58l9.82 -26.73c-105.52,-1.43 -211.04,-2.86 -316.67,-4.32 -188.11,-2.52 -376.78,3.62 -564.19,-9.18 -173.99,-11.9 -346.58,-43.92 -519.81,-66.93 -137.36,-18.18 -274.48,-38.68 -412.25,-53.33 -137.41,-14.59 -211.56,75.49 -266.12,181.54 -32.68,63.41 -53.76,134.08 -71.86,203.61 -29.53,113.5 20.11,171.41 135.25,169.78 284.33,-4.07 568.7,-7.14 853.09,-10.12 84,-0.96 162.47,-62.01 190.42,-150.19 -3.8,0 -10,-1.55 -11.14,0.2 -73.74,111.19 -182.82,118.42 -302.99,114.09 -190.07,-6.96 -380.67,-6.49 -570.91,-2.17 -115.81,2.64 -142.39,-31.98 -101.49,-153.46 62.31,-185.16 113.39,-255.19 378.8,-228.08z"/>
  <path class="fil1" d="M-29985.73 -21868.44c69.64,10.49 140.28,14.67 210.51,21.37 61.02,5.73 122.03,11.46 192.15,17.95 -38.54,-29.85 -80.5,-44.88 -123.65,-54.35 -164.93,-3.25 -294.77,-32.72 -294.77,-69.18 0,-38.56 144.49,-69.73 322.75,-69.73 178.23,-0.03 322.72,31.23 322.72,69.73 0,11.64 -14.44,22.43 -37.74,32.08 19.76,12.04 36.84,25.14 49.38,39.47 -16.87,22.48 -34.27,45.69 -53.01,70.55 117.54,89.7 248.52,89.72 384.38,79.11 338.75,-26.78 677.46,-56.63 1016.7,-71.16 156.36,-6.73 312.84,-10.53 469.29,-13.63l8.57 -23.33c-551.21,5.76 -1105.09,36.43 -1667.85,77.69 59.5,-88.01 108.21,-163.38 160.55,-236.15 35.9,-49.91 77.74,-95.43 115.4,-144.09 96.22,-124.28 235.88,-162.03 379.55,-181.41 192.36,-25.94 385.76,-48.98 579.46,-58.51 216.38,-10.67 432.68,-18.01 640.09,-24.47l13.1 -35.84c-266,-5.35 -545.01,0.84 -824.11,16.95 -200.39,11.52 -400.7,26.49 -600.68,43.89 -148.44,12.89 -256.76,98.88 -351.73,206.27 -47.36,53.53 -100.31,102.45 -145.1,157.97 -23.95,29.59 -47.89,32.19 -76.17,19.09 -218.28,-101.02 -443.67,-59.35 -668.24,-34.65 -10.47,1.11 -20.64,5.44 -30.82,8.69 -41.25,13.1 -85.58,25.08 -81.25,81.48 4.12,53.97 48.36,67.95 90.52,74.21z"/>
  <path class="fil1" d="M-24036.88 -20057.49c-1506.07,-4.5 -3012.29,-9.24 -4518.36,-14.18 -29.91,-0.03 -60.87,1.55 -89.32,-5.58 -146.68,-36.31 -200.97,-145.51 -112.53,-269.51 154.4,-216.5 331.61,-405.55 633.19,-405.67 73.94,-0.09 143.06,-0.2 208.35,-0.49l16.51 -45.44c-76.45,-0.99 -180.1,-1.69 -334.7,-2.02 -167.01,-0.23 -312.02,58.39 -423.62,188.03 -75.9,88.24 -164.81,168.43 -225.95,265.91 -119,189.75 30.2,340.06 200.98,348.31 296.55,14.23 594.1,12.8 891.27,12.48 586.18,-0.64 1172.41,-6.2 1758.59,-7.43 1213.06,-2.72 2426.23,-3.71 3639.28,-5.87 106.96,-0.15 379.56,-0.82 633.69,-1.87l0.03 -51.9c-732.42,-1.67 -1679.68,-2.98 -2277.41,-4.77z"/>
  <path class="fil1" d="M-29835.71 -20610.86c-89.32,1.05 -152.13,66.08 -140.05,152.71 11.69,83.73 30.11,168.43 60.14,247.14 29.56,77.3 103.97,108.38 182.59,120.25 59,8.86 118.76,15.99 178.29,17.13 131.89,2.52 263.86,0.82 396.83,-7.95 -62.36,-9.32 -124.61,-18.97 -187.03,-27.74 -99.2,-14.07 -199.83,-21.46 -297.4,-43.01 -84.76,-18.8 -152.03,-66.75 -167.44,-163.29 -3.98,-24.97 -15.32,-48.65 -21.46,-73.42 -27.1,-108.73 19.76,-175.13 132.94,-178.75 151.71,-4.89 303.6,-4.13 455.4,-5.68 34.09,-0.32 68.18,-0.08 102.24,-0.08 0.15,-3.66 0.27,-7.34 0.41,-11.06 -107.82,-7.74 -215.53,-18.24 -323.48,-22.27 -123.88,-4.65 -248.02,-5.35 -371.98,-3.98z"/>
  <path class="fil1" d="M-29886 -21537.33c5.11,-3.54 9.7,-4.33 14.65,-6.81 51.34,-44.59 153.55,-71.9 272.66,-75.29 293.52,-8.42 508.59,209.69 492.04,272.7 -3.89,14.61 -13.72,26.92 -27.34,37.24 170.66,28.42 343.57,55.18 513.47,88.51 3.71,-10.53 -194.23,-165.98 -301.56,-226.92 -143.06,-81.3 -288.45,-161.41 -440.43,-223.4 -269.36,-110.1 -527.85,-38.06 -675.58,143.56 -91.4,112.42 -137.51,247.23 -172.68,385.43 -69.94,274.98 -85.55,556.36 -95.2,838.27 -0.46,12.74 -0.2,26.08 -0.41,38.97l0 271.12c26.73,0.41 54.79,0.99 86.08,1.37 1.37,-25.61 2.78,-45.87 3.48,-66.19 8.36,-245.74 5.64,-492.42 28.09,-736.75 20.35,-221.91 63.74,-443.21 190.02,-635.07 27.8,-42.27 70.28,-77.86 112.71,-106.74z"/>
 </g>
</svg>
